<svg width="23" height="27" viewBox="0 0 23 27" fill="none" xmlns="http://www.w3.org/2000/svg">
<g clip-path="url(#clip0_10_12)">
<path fill-rule="evenodd" clip-rule="evenodd" d="M14.0545 9.74263C14.8539 9.34403 15.871 8.75727 16.8894 7.95335C17.1041 8.39926 17.1276 8.78837 17.017 9.10256C16.9386 9.32399 16.7909 9.51659 16.5966 9.66981C16.3863 9.8354 16.1235 9.95596 15.8331 10.0211C15.2821 10.1452 14.6387 10.0728 14.0545 9.74263ZM14.1931 13.8268L15.2512 14.438C13.0906 15.649 12.5033 17.8976 11.8055 20.0877C11.1079 17.8976 10.5204 15.649 8.35989 14.438L9.41808 13.8268C9.52044 13.7881 9.60794 13.718 9.66802 13.6265C9.72811 13.5351 9.75771 13.4269 9.75257 13.3176C9.65562 11.2665 10.2095 10.3594 10.9565 9.78993C11.2244 9.58592 11.5169 9.48349 11.8055 9.48349C12.0941 9.48349 12.3866 9.58592 12.6547 9.78993C13.4017 10.3594 13.9555 11.2665 13.8586 13.3176C13.8534 13.4269 13.883 13.5351 13.9431 13.6265C14.0032 13.718 14.0907 13.7881 14.1931 13.8268ZM11.8055 0.433777C13.0287 0.466616 14.2549 0.704072 15.3191 1.166C16.056 1.4863 16.7437 1.90938 17.3663 2.4153C17.6475 2.6437 17.879 2.86434 18.1341 3.11835C18.822 3.14213 19.8273 2.37793 20.294 1.66287C19.4908 4.29613 15.8255 7.40579 13.2879 8.59568C13.2869 8.59525 13.2862 8.59464 13.2854 8.59412C12.83 8.24638 12.3178 8.07251 11.8055 8.07251C11.2932 8.07251 10.7811 8.24638 10.3257 8.59412C10.325 8.59455 10.3243 8.59534 10.3232 8.59568C7.78559 7.40579 4.12036 4.29613 3.31714 1.66287C3.78377 2.37793 4.78909 3.14213 5.47697 3.11835C5.73211 2.86443 5.96365 2.6437 6.24474 2.4153C6.86739 1.90938 7.55502 1.4863 8.29195 1.166C9.35623 0.704072 10.5824 0.466616 11.8055 0.433777ZM9.55658 9.74263C8.75728 9.34403 7.74003 8.75727 6.72174 7.95335C6.50702 8.39926 6.4835 8.78837 6.59404 9.10256C6.67253 9.32399 6.82026 9.51659 7.01443 9.66981C7.22488 9.8354 7.4876 9.95596 7.77801 10.0211C8.32906 10.1452 8.97235 10.0728 9.55658 9.74263Z" fill="white"/>
<path fill-rule="evenodd" clip-rule="evenodd" d="M18.0048 6.96825C18.5655 6.40248 19.0595 5.77626 19.4567 5.21747L19.6584 5.59717C20.3079 6.89656 20.6453 8.19072 20.6453 9.64716L20.644 11.9583L20.6561 13.1564C20.7032 16.0977 21.3396 19.0735 22.7812 21.7969L19.7649 19.3646L17.6307 22.828L15.3886 20.7172L11.8057 26.5316L8.22274 20.7173L5.98067 22.828L3.84644 19.3647L0.830078 21.7969C2.27171 19.0736 2.90812 16.0977 2.95525 13.1565L2.96744 11.9584L2.96605 9.64725C2.96605 8.19072 3.30342 6.89656 3.95306 5.59726L4.15472 5.21756C4.55193 5.77635 5.04583 6.40248 5.60654 6.96833L5.43146 7.33201C5.0913 8.03837 4.97867 8.82817 5.24365 9.5793C5.41447 10.0631 5.72623 10.478 6.12814 10.7947C6.51839 11.1023 6.98023 11.3096 7.46377 11.4185C7.77875 11.4894 8.09965 11.5186 8.41847 11.5087C8.34408 11.9303 8.31159 12.3677 8.3095 12.8134L5.46421 14.4567L7.65985 15.6875C7.83534 15.7859 8.0024 15.8986 8.15932 16.0245C9.96951 17.6497 11.0578 22.4578 11.8057 24.8063C12.5537 22.4578 13.642 17.6497 15.4522 16.0245C15.6092 15.8986 15.7762 15.7858 15.9517 15.6875L18.1474 14.4567L15.302 12.8134C15.2999 12.3677 15.2674 11.9303 15.193 11.5087C15.5118 11.5186 15.8327 11.4894 16.1477 11.4185C16.6312 11.3096 17.0932 11.1023 17.4833 10.7947C17.8852 10.478 18.197 10.0631 18.3677 9.5793C18.6328 8.82817 18.5201 8.03845 18.18 7.33201L18.0049 6.96833L18.0048 6.96825Z" fill="white"/>
</g>
<defs>
<clipPath id="clip0_10_12">
<rect width="21.9511" height="26.1323" fill="white" transform="translate(0.830078 0.433777)"/>
</clipPath>
</defs>
</svg>
